<?xml version="1.0" encoding="UTF-8" standalone="no"?>
<!-- Created with Inkscape (http://www.inkscape.org/) -->

<svg
   xmlns:dc="http://purl.org/dc/elements/1.1/"
   xmlns:cc="http://creativecommons.org/ns#"
   xmlns:rdf="http://www.w3.org/1999/02/22-rdf-syntax-ns#"
   xmlns:svg="http://www.w3.org/2000/svg"
   xmlns="http://www.w3.org/2000/svg"
   xmlns:sodipodi="http://sodipodi.sourceforge.net/DTD/sodipodi-0.dtd"
   xmlns:inkscape="http://www.inkscape.org/namespaces/inkscape"
   width="210mm"
   height="210mm"
   viewBox="0 0 210 210"
   version="1.1"
   id="svg5028"
   inkscape:version="0.92.3 (2405546, 2018-03-11)"
   sodipodi:docname="MyPinwheelFlower.svg">
  <defs
     id="defs5022" />
  <sodipodi:namedview
     id="base"
     pagecolor="#ffffff"
     bordercolor="#666666"
     borderopacity="1.0"
     inkscape:pageopacity="0.0"
     inkscape:pageshadow="2"
     inkscape:zoom="0.70000001"
     inkscape:cx="724.5067"
     inkscape:cy="363.90726"
     inkscape:document-units="mm"
     inkscape:current-layer="layer1"
     showgrid="false"
     inkscape:window-width="1920"
     inkscape:window-height="1017"
     inkscape:window-x="-8"
     inkscape:window-y="-8"
     inkscape:window-maximized="1" />
  <metadata
     id="metadata5025">
    <rdf:RDF>
      <cc:Work
         rdf:about="">
        <dc:format>image/svg+xml</dc:format>
        <dc:type
           rdf:resource="http://purl.org/dc/dcmitype/StillImage" />
        <dc:title></dc:title>
      </cc:Work>
    </rdf:RDF>
  </metadata>
  <g
     inkscape:label="Layer 1"
     inkscape:groupmode="layer"
     id="layer1"
     transform="translate(0,-87)">
    <path
       id="path3276"
       style="display:inline;overflow:visible;visibility:visible;fill:#593196;fill-opacity:1;fill-rule:evenodd;stroke:#593196;stroke-width:1.984375;stroke-linecap:butt;stroke-linejoin:miter;stroke-miterlimit:4;stroke-dasharray:none;stroke-dashoffset:0;stroke-opacity:1;marker:none;marker-start:none;marker-mid:none;marker-end:none;enable-background:accumulate"
       d="m 105.92185,192.85278 c 0.0123,1.94868 3.49552,13.01676 11.27191,13.97651 10.49916,1.29577 10.4249,-12.71424 0.19772,-11.51125 -4.28574,0.50411 -9.6525,-1.21513 -11.46963,-2.46526 z m 0.2776,-1.22473 c 1.69378,0.96366 13.02062,3.48118 17.73996,-2.7735 6.37175,-8.44468 -5.79839,-15.38536 -9.87017,-5.92687 -1.70629,3.96361 -5.87856,7.75173 -7.86979,8.70037 z m -0.92183,-0.85278 c 1.68142,-0.98502 9.52507,-9.53558 6.46805,-16.75 -4.12742,-9.74046 -16.223297,-2.67113 -10.0679,5.58437 2.57943,3.45951 3.77391,8.96686 3.59985,11.16563 z m -1.19947,0.37195 c -0.0123,-1.94868 -3.49551,-13.01676 -11.271877,-13.97651 -10.4992,-1.29577 -10.42493,12.71424 -0.19775,11.51126 4.28575,-0.50411 9.652467,1.21512 11.469627,2.46525 z m -0.2776,1.22473 c -1.69378,-0.96366 -13.020587,-3.48117 -17.739967,2.7735 -6.37174,8.44468 5.7984,15.38536 9.87018,5.92688 1.7063,-3.96362 5.878557,-7.75174 7.869787,-8.70038 z m 0.92184,0.85278 c -1.68143,0.98502 -9.525077,9.53559 -6.468057,16.75001 4.127417,9.74045 16.223317,2.67113 10.067927,-5.58438 -2.57945,-3.4595 -3.77392,-8.96686 -3.59987,-11.16563 z"
       inkscape:connector-curvature="0"
       inkscape:export-xdpi="34.464729"
       inkscape:export-ydpi="34.464729" />
    <circle
       style="display:inline;opacity:1;fill:#ffffff;fill-opacity:1;fill-rule:nonzero;stroke:#ffffff;stroke-width:0.1087592;stroke-linecap:butt;stroke-linejoin:miter;stroke-miterlimit:4;stroke-dasharray:none;stroke-opacity:1"
       id="path2524"
       cx="105.00001"
       cy="192"
       r="5.753119"
       inkscape:export-xdpi="34.464729"
       inkscape:export-ydpi="34.464729" />
  </g>
</svg>
